# xmcd
#
# Track frame offsets: 
#        150
#        21969
#        47373
#        61536
#        85782
#        104128
#        120589
#        144594
#
# Disc length: 2252 seconds
#
# Revision: 0
# Processed by: cddbd v1.5.2PL0 Copyright (c) Steve Scherf et al.
# Submitted via: ExactAudioCopy v0.99pb3
#
DISCID=6108ca08
DTITLE=The SIlver Creek Band - Today Love Set Sail
DYEAR=1999
DGENRE=Country
TTITLE0=Today Love Set Sail
TTITLE1=How You Play
TTITLE2=Know This Man
TTITLE3=Leavin' Here Tomorrow
TTITLE4=Flip It Up
TTITLE5=Sea Of Love
TTITLE6=Ghost Riders In The Sky
TTITLE7=Too Dark To See
EXTD=
EXTT0=
EXTT1=
EXTT2=
EXTT3=
EXTT4=
EXTT5=
EXTT6=
EXTT7=
PLAYORDER=
